<svg id="Layer_1" data-name="Layer 1" xmlns="http://www.w3.org/2000/svg" viewBox="0 0 24 24" stroke-width="1.5" width="24" height="24" color="#000000"><defs><style>.cls-6376396cc3a86d32eae6f0e8-1{fill:none;stroke:currentColor;stroke-miterlimit:10;}</style></defs><path class="cls-6376396cc3a86d32eae6f0e8-1" d="M15.82,3.86A2.23,2.23,0,0,0,13.74,1.5,2,2,0,0,0,12,2.56,2,2,0,0,0,10.26,1.5,2.23,2.23,0,0,0,8.18,3.86C8.18,6.61,12,8.18,12,8.18S15.82,6.61,15.82,3.86Z"></path><polyline class="cls-6376396cc3a86d32eae6f0e8-1" points="18.59 7.23 22.5 7.23 22.5 22.5 1.5 22.5 1.5 7.23 5.41 7.23"></polyline><polyline class="cls-6376396cc3a86d32eae6f0e8-1" points="1.5 7.23 12 17.73 22.5 7.23"></polyline><line class="cls-6376396cc3a86d32eae6f0e8-1" x1="9.14" y1="14.86" x2="1.5" y2="22.5"></line><line class="cls-6376396cc3a86d32eae6f0e8-1" x1="22.5" y1="22.5" x2="14.86" y2="14.86"></line><polyline class="cls-6376396cc3a86d32eae6f0e8-1" points="17.73 7.23 22.5 7.23 22.5 22.5 1.5 22.5 1.5 7.23 6.27 7.23"></polyline></svg>